<?xml version="1.0" encoding="UTF-8" standalone="no"?>
<svg width="800" height="500" viewBox="0 0 800 500" fill="none" xmlns="http://www.w3.org/2000/svg">
  <!-- Dashboard Background -->
  <rect width="800" height="500" fill="#f8fafc" rx="12"/>
  
  <!-- Header Bar -->
  <rect width="800" height="60" fill="#ffffff" rx="12 12 0 0"/>
  <rect x="20" y="20" width="120" height="20" fill="#e2e8f0" rx="4"/>
  <rect x="680" y="15" width="30" height="30" fill="#60a5fa" rx="15"/>
  <rect x="720" y="15" width="30" height="30" fill="#e2e8f0" rx="15"/>
  <rect x="760" y="15" width="30" height="30" fill="#e2e8f0" rx="15"/>
  
  <!-- Main Navigation -->
  <rect x="0" y="60" width="200" height="440" fill="#f1f5f9"/>
  <rect x="20" y="80" width="160" height="8" fill="#60a5fa" rx="4"/>
  <rect x="20" y="100" width="140" height="6" fill="#cbd5e1" rx="3"/>
  <rect x="20" y="120" width="130" height="6" fill="#cbd5e1" rx="3"/>
  <rect x="20" y="140" width="150" height="6" fill="#cbd5e1" rx="3"/>
  <rect x="20" y="160" width="120" height="6" fill="#cbd5e1" rx="3"/>
  
  <!-- Stat Cards -->
  <rect x="220" y="80" width="140" height="80" fill="#ffffff" rx="8" stroke="#e2e8f0"/>
  <text x="235" y="100" font-family="Arial, sans-serif" font-size="12" fill="#64748b">Total Revenue</text>
  <text x="235" y="125" font-family="Arial, sans-serif" font-size="20" font-weight="bold" fill="#0f172a">$24,587</text>
  <text x="235" y="145" font-family="Arial, sans-serif" font-size="10" fill="#059669">+12% vs last month</text>
  
  <rect x="380" y="80" width="140" height="80" fill="#ffffff" rx="8" stroke="#e2e8f0"/>
  <text x="395" y="100" font-family="Arial, sans-serif" font-size="12" fill="#64748b">Occupancy Rate</text>
  <text x="395" y="125" font-family="Arial, sans-serif" font-size="20" font-weight="bold" fill="#0f172a">84.2%</text>
  <text x="395" y="145" font-family="Arial, sans-serif" font-size="10" fill="#059669">+3.2% vs last week</text>
  
  <rect x="540" y="80" width="140" height="80" fill="#ffffff" rx="8" stroke="#e2e8f0"/>
  <text x="555" y="100" font-family="Arial, sans-serif" font-size="12" fill="#64748b">New Bookings</text>
  <text x="555" y="125" font-family="Arial, sans-serif" font-size="20" font-weight="bold" fill="#0f172a">127</text>
  <text x="555" y="145" font-family="Arial, sans-serif" font-size="10" fill="#059669">+18 today</text>
  
  <!-- Revenue Chart -->
  <rect x="220" y="180" width="300" height="200" fill="#ffffff" rx="8" stroke="#e2e8f0"/>
  <text x="235" y="200" font-family="Arial, sans-serif" font-size="14" font-weight="bold" fill="#0f172a">Revenue Overview</text>
  
  <!-- Chart bars -->
  <rect x="250" y="320" width="20" height="40" fill="#60a5fa" rx="2"/>
  <rect x="280" y="310" width="20" height="50" fill="#60a5fa" rx="2"/>
  <rect x="310" y="300" width="20" height="60" fill="#60a5fa" rx="2"/>
  <rect x="340" y="290" width="20" height="70" fill="#60a5fa" rx="2"/>
  <rect x="370" y="280" width="20" height="80" fill="#60a5fa" rx="2"/>
  <rect x="400" y="270" width="20" height="90" fill="#60a5fa" rx="2"/>
  <rect x="430" y="285" width="20" height="75" fill="#60a5fa" rx="2"/>
  <rect x="460" y="275" width="20" height="85" fill="#60a5fa" rx="2"/>
  
  <!-- Chart labels -->
  <text x="253" y="375" font-family="Arial, sans-serif" font-size="8" fill="#64748b">Jan</text>
  <text x="283" y="375" font-family="Arial, sans-serif" font-size="8" fill="#64748b">Feb</text>
  <text x="313" y="375" font-family="Arial, sans-serif" font-size="8" fill="#64748b">Mar</text>
  <text x="343" y="375" font-family="Arial, sans-serif" font-size="8" fill="#64748b">Apr</text>
  <text x="373" y="375" font-family="Arial, sans-serif" font-size="8" fill="#64748b">May</text>
  <text x="403" y="375" font-family="Arial, sans-serif" font-size="8" fill="#64748b">Jun</text>
  <text x="433" y="375" font-family="Arial, sans-serif" font-size="8" fill="#64748b">Jul</text>
  <text x="463" y="375" font-family="Arial, sans-serif" font-size="8" fill="#64748b">Aug</text>
  
  <!-- Bookings Table -->
  <rect x="540" y="180" width="240" height="200" fill="#ffffff" rx="8" stroke="#e2e8f0"/>
  <text x="555" y="200" font-family="Arial, sans-serif" font-size="14" font-weight="bold" fill="#0f172a">Recent Bookings</text>
  
  <!-- Table headers -->
  <rect x="555" y="210" width="210" height="25" fill="#f8fafc"/>
  <text x="565" y="225" font-family="Arial, sans-serif" font-size="10" font-weight="bold" fill="#64748b">GUEST</text>
  <text x="650" y="225" font-family="Arial, sans-serif" font-size="10" font-weight="bold" fill="#64748b">ROOM</text>
  <text x="720" y="225" font-family="Arial, sans-serif" font-size="10" font-weight="bold" fill="#64748b">STATUS</text>
  
  <!-- Table rows -->
  <text x="565" y="250" font-family="Arial, sans-serif" font-size="9" fill="#0f172a">John Smith</text>
  <text x="650" y="250" font-family="Arial, sans-serif" font-size="9" fill="#0f172a">101</text>
  <rect x="715" y="242" width="40" height="12" fill="#dcfce7" rx="6"/>
  <text x="720" y="250" font-family="Arial, sans-serif" font-size="8" fill="#166534">Confirmed</text>
  
  <text x="565" y="270" font-family="Arial, sans-serif" font-size="9" fill="#0f172a">Sarah Johnson</text>
  <text x="650" y="270" font-family="Arial, sans-serif" font-size="9" fill="#0f172a">205</text>
  <rect x="715" y="262" width="40" height="12" fill="#fef3c7" rx="6"/>
  <text x="720" y="270" font-family="Arial, sans-serif" font-size="8" fill="#92400e">Pending</text>
  
  <text x="565" y="290" font-family="Arial, sans-serif" font-size="9" fill="#0f172a">Mike Wilson</text>
  <text x="650" y="290" font-family="Arial, sans-serif" font-size="9" fill="#0f172a">302</text>
  <rect x="715" y="282" width="40" height="12" fill="#dcfce7" rx="6"/>
  <text x="720" y="290" font-family="Arial, sans-serif" font-size="8" fill="#166534">Confirmed</text>
  
  <text x="565" y="310" font-family="Arial, sans-serif" font-size="9" fill="#0f172a">Emma Davis</text>
  <text x="650" y="310" font-family="Arial, sans-serif" font-size="9" fill="#0f172a">450</text>
  <rect x="715" y="302" width="40" height="12" fill="#dbeafe" rx="6"/>
  <text x="720" y="310" font-family="Arial, sans-serif" font-size="8" fill="#1e40af">Check-in</text>
  
  <!-- Quick Actions -->
  <rect x="220" y="400" width="560" height="80" fill="#ffffff" rx="8" stroke="#e2e8f0"/>
  <text x="235" y="420" font-family="Arial, sans-serif" font-size="14" font-weight="bold" fill="#0f172a">Quick Actions</text>
  
  <rect x="240" y="435" width="100" height="30" fill="#60a5fa" rx="6"/>
  <text x="270" y="453" font-family="Arial, sans-serif" font-size="10" font-weight="bold" fill="#ffffff">New Booking</text>
  
  <rect x="350" y="435" width="100" height="30" fill="#e2e8f0" rx="6"/>
  <text x="385" y="453" font-family="Arial, sans-serif" font-size="10" font-weight="bold" fill="#64748b">Check-in</text>
  
  <rect x="460" y="435" width="100" height="30" fill="#e2e8f0" rx="6"/>
  <text x="495" y="453" font-family="Arial, sans-serif" font-size="10" font-weight="bold" fill="#64748b">Reports</text>
  
  <rect x="570" y="435" width="100" height="30" fill="#e2e8f0" rx="6"/>
  <text x="605" y="453" font-family="Arial, sans-serif" font-size="10" font-weight="bold" fill="#64748b">Settings</text>
</svg> 