<?xml version="1.0" encoding="UTF-8" standalone="no"?>
<svg width="800" height="500" viewBox="0 0 800 500" fill="none" xmlns="http://www.w3.org/2000/svg">
  <!-- City Background -->
  <rect width="800" height="500" fill="#F0F9FF"/>
  
  <!-- Sky Gradient -->
  <rect width="800" height="300" fill="url(#sky_gradient)"/>
  
  <!-- Buildings -->
  <rect x="50" y="150" width="100" height="350" fill="#334155"/>
  <rect x="150" y="200" width="80" height="300" fill="#1E293B"/>
  <rect x="230" y="180" width="120" height="320" fill="#475569"/>
  <rect x="350" y="220" width="70" height="280" fill="#334155"/>
  <rect x="420" y="150" width="90" height="350" fill="#1E293B"/>
  <rect x="510" y="250" width="60" height="250" fill="#475569"/>
  <rect x="570" y="180" width="110" height="320" fill="#334155"/>
  <rect x="680" y="220" width="70" height="280" fill="#1E293B"/>
  
  <!-- Windows -->
  <g opacity="0.7">
    <!-- Building 1 -->
    <rect x="65" y="180" width="15" height="20" fill="#FBBF24"/>
    <rect x="90" y="180" width="15" height="20" fill="#FBBF24"/>
    <rect x="65" y="220" width="15" height="20" fill="#FBBF24"/>
    <rect x="90" y="220" width="15" height="20" fill="#FBBF24"/>
    <rect x="65" y="260" width="15" height="20" fill="#FBBF24"/>
    <rect x="90" y="260" width="15" height="20" fill="#FBBF24"/>
    
    <!-- Building 2 -->
    <rect x="165" y="230" width="15" height="20" fill="#FBBF24"/>
    <rect x="190" y="230" width="15" height="20" fill="#FBBF24"/>
    <rect x="165" y="270" width="15" height="20" fill="#FBBF24"/>
    <rect x="190" y="270" width="15" height="20" fill="#FBBF24"/>
    
    <!-- Building 3 -->
    <rect x="250" y="210" width="15" height="20" fill="#FBBF24"/>
    <rect x="280" y="210" width="15" height="20" fill="#FBBF24"/>
    <rect x="310" y="210" width="15" height="20" fill="#FBBF24"/>
    <rect x="250" y="250" width="15" height="20" fill="#FBBF24"/>
    <rect x="280" y="250" width="15" height="20" fill="#FBBF24"/>
    <rect x="310" y="250" width="15" height="20" fill="#FBBF24"/>
    
    <!-- More windows for other buildings -->
    <rect x="365" y="250" width="15" height="20" fill="#FBBF24"/>
    <rect x="390" y="250" width="15" height="20" fill="#FBBF24"/>
    <rect x="365" y="290" width="15" height="20" fill="#FBBF24"/>
    <rect x="390" y="290" width="15" height="20" fill="#FBBF24"/>
    
    <rect x="435" y="180" width="15" height="20" fill="#FBBF24"/>
    <rect x="460" y="180" width="15" height="20" fill="#FBBF24"/>
    <rect x="485" y="180" width="15" height="20" fill="#FBBF24"/>
    <rect x="435" y="220" width="15" height="20" fill="#FBBF24"/>
    <rect x="460" y="220" width="15" height="20" fill="#FBBF24"/>
    <rect x="485" y="220" width="15" height="20" fill="#FBBF24"/>
    
    <rect x="525" y="280" width="15" height="20" fill="#FBBF24"/>
    <rect x="550" y="280" width="15" height="20" fill="#FBBF24"/>
    <rect x="525" y="320" width="15" height="20" fill="#FBBF24"/>
    <rect x="550" y="320" width="15" height="20" fill="#FBBF24"/>
    
    <rect x="585" y="210" width="15" height="20" fill="#FBBF24"/>
    <rect x="610" y="210" width="15" height="20" fill="#FBBF24"/>
    <rect x="635" y="210" width="15" height="20" fill="#FBBF24"/>
    <rect x="585" y="250" width="15" height="20" fill="#FBBF24"/>
    <rect x="610" y="250" width="15" height="20" fill="#FBBF24"/>
    <rect x="635" y="250" width="15" height="20" fill="#FBBF24"/>
    
    <rect x="695" y="250" width="15" height="20" fill="#FBBF24"/>
    <rect x="720" y="250" width="15" height="20" fill="#FBBF24"/>
    <rect x="695" y="290" width="15" height="20" fill="#FBBF24"/>
    <rect x="720" y="290" width="15" height="20" fill="#FBBF24"/>
  </g>
  
  <!-- Beach -->
  <path d="M0 350 L800 400 L800 500 L0 500 Z" fill="#FBBF24"/>
  
  <!-- Water -->
  <path d="M0 350 L800 400 L800 450 L0 420 Z" fill="#3B82F6" opacity="0.7"/>
  
  <!-- Sun -->
  <circle cx="650" cy="100" r="50" fill="#FBBF24"/>
  <circle cx="650" cy="100" r="40" fill="#FEF3C7"/>
  
  <!-- Gradient definition -->
  <defs>
    <linearGradient id="sky_gradient" x1="0" y1="0" x2="0" y2="300" gradientUnits="userSpaceOnUse">
      <stop offset="0" stop-color="#93C5FD"/>
      <stop offset="1" stop-color="#DBEAFE"/>
    </linearGradient>
  </defs>
</svg>
