<?xml version="1.0" encoding="UTF-8" standalone="no"?>
<svg width="800" height="500" viewBox="0 0 800 500" fill="none" xmlns="http://www.w3.org/2000/svg">
  <rect width="800" height="500" rx="10" fill="#F9FAFB"/>
  <rect x="20" y="20" width="760" height="60" rx="8" fill="#FFFFFF" stroke="#E5E7EB" stroke-width="1"/>
  <rect x="40" y="40" width="120" height="20" rx="4" fill="#3B82F6" opacity="0.7"/>
  <rect x="580" y="40" width="80" height="20" rx="4" fill="#E5E7EB"/>
  <rect x="680" y="40" width="80" height="20" rx="4" fill="#3B82F6"/>
  
  <!-- Sidebar -->
  <rect x="20" y="100" width="200" height="380" rx="8" fill="#FFFFFF" stroke="#E5E7EB" stroke-width="1"/>
  <rect x="40" y="130" width="160" height="12" rx="2" fill="#E5E7EB"/>
  <rect x="40" y="160" width="160" height="12" rx="2" fill="#E5E7EB"/>
  <rect x="40" y="190" width="160" height="12" rx="2" fill="#E5E7EB"/>
  <rect x="40" y="220" width="160" height="12" rx="2" fill="#3B82F6" opacity="0.7"/>
  <rect x="40" y="250" width="160" height="12" rx="2" fill="#E5E7EB"/>
  <rect x="40" y="280" width="160" height="12" rx="2" fill="#E5E7EB"/>
  
  <!-- Main Content -->
  <rect x="240" y="100" width="540" height="120" rx="8" fill="#FFFFFF" stroke="#E5E7EB" stroke-width="1"/>
  <rect x="260" y="120" width="200" height="24" rx="4" fill="#111827"/>
  <rect x="260" y="160" width="300" height="12" rx="2" fill="#9CA3AF"/>
  <rect x="260" y="180" width="250" height="12" rx="2" fill="#9CA3AF"/>
  
  <!-- Stats Cards -->
  <rect x="240" y="240" width="170" height="100" rx="8" fill="#FFFFFF" stroke="#E5E7EB" stroke-width="1"/>
  <rect x="260" y="260" width="80" height="20" rx="4" fill="#111827"/>
  <rect x="260" y="290" width="130" height="30" rx="4" fill="#3B82F6" opacity="0.2"/>
  <rect x="270" y="300" width="50" height="10" rx="2" fill="#3B82F6"/>
  
  <rect x="425" y="240" width="170" height="100" rx="8" fill="#FFFFFF" stroke="#E5E7EB" stroke-width="1"/>
  <rect x="445" y="260" width="80" height="20" rx="4" fill="#111827"/>
  <rect x="445" y="290" width="130" height="30" rx="4" fill="#10B981" opacity="0.2"/>
  <rect x="455" y="300" width="50" height="10" rx="2" fill="#10B981"/>
  
  <rect x="610" y="240" width="170" height="100" rx="8" fill="#FFFFFF" stroke="#E5E7EB" stroke-width="1"/>
  <rect x="630" y="260" width="80" height="20" rx="4" fill="#111827"/>
  <rect x="630" y="290" width="130" height="30" rx="4" fill="#F59E0B" opacity="0.2"/>
  <rect x="640" y="300" width="50" height="10" rx="2" fill="#F59E0B"/>
  
  <!-- Chart -->
  <rect x="240" y="360" width="540" height="120" rx="8" fill="#FFFFFF" stroke="#E5E7EB" stroke-width="1"/>
  <rect x="260" y="380" width="150" height="20" rx="4" fill="#111827"/>
  
  <!-- Chart Lines -->
  <path d="M260 440 L780 440" stroke="#E5E7EB" stroke-width="1"/>
  <path d="M260 420 L780 420" stroke="#E5E7EB" stroke-width="1"/>
  <path d="M260 460 L780 460" stroke="#E5E7EB" stroke-width="1"/>
  
  <!-- Chart Data -->
  <path d="M280 450 L320 430 L360 440 L400 410 L440 420 L480 400 L520 390 L560 410 L600 380 L640 400 L680 370 L720 390 L760 360" stroke="#3B82F6" stroke-width="2" fill="none"/>
  <circle cx="280" cy="450" r="4" fill="#3B82F6"/>
  <circle cx="320" cy="430" r="4" fill="#3B82F6"/>
  <circle cx="360" cy="440" r="4" fill="#3B82F6"/>
  <circle cx="400" cy="410" r="4" fill="#3B82F6"/>
  <circle cx="440" cy="420" r="4" fill="#3B82F6"/>
  <circle cx="480" cy="400" r="4" fill="#3B82F6"/>
  <circle cx="520" cy="390" r="4" fill="#3B82F6"/>
  <circle cx="560" cy="410" r="4" fill="#3B82F6"/>
  <circle cx="600" cy="380" r="4" fill="#3B82F6"/>
  <circle cx="640" cy="400" r="4" fill="#3B82F6"/>
  <circle cx="680" cy="370" r="4" fill="#3B82F6"/>
  <circle cx="720" cy="390" r="4" fill="#3B82F6"/>
  <circle cx="760" cy="360" r="4" fill="#3B82F6"/>
</svg>
